<svg id="Flat" height="512" viewBox="0 0 128 128" width="512" xmlns="http://www.w3.org/2000/svg"><path d="m97.178 33.187v27.432h-10.778v-27.343a22.39 22.39 0 1 0 -44.779 0v27.343h-10.799v-27.432a33.178 33.178 0 1 1 66.356 0z" fill="#c1cdd2"/><g opacity=".25"><path d="m89.312 32.971v26.8h-2.912v-26.495a22.39 22.39 0 1 0 -44.779 0v26.495h-2.933v-26.8a25.312 25.312 0 0 1 50.624 0z" fill="#9297aa"/></g><rect fill="#fac77c" height="72.689" rx="10.185" width="87.103" x="20.446" y="55.31"/><path d="m107.554 66.5v50.306a11.19 11.19 0 0 1 -11.193 11.194h-64.729a11.169 11.169 0 0 1 -9.567-5.393.726.726 0 0 0 .154.011h72.791a7.163 7.163 0 0 0 7.162-7.162v-58.369a.823.823 0 0 0 -.011-.164 11.188 11.188 0 0 1 5.393 9.577z" fill="#f1a846" opacity=".5"/><path d="m71.6 86.523a7.6 7.6 0 1 0 -11.054 6.762v12.715h6.91v-12.715a7.593 7.593 0 0 0 4.144-6.762z" fill="#2f3a5a"/></svg>